<svg xmlns="http://www.w3.org/2000/svg" viewBox="0 0 24 24"><path fill="#F2F2F2" d="M12 3C4 3 .525 9.5 0 12c.525 2.5 4 9 12 9s11.475-6.5 12-9c-.525-2.5-4-9-12-9z"/><path fill="#F2F2F2" d="M12 3C4 3 .525 9.5 0 12c.525 2.5 4 9 12 9s11.475-6.5 12-9c-.525-2.5-4-9-12-9z"/><path fill="#FFF" d="M12 3.25c7.804 0 11.315 6.113 11.998 8.759L24 12c-.525-2.5-4-9-12-9S.525 9.5 0 12l.002.009C.685 9.363 4.196 3.25 12 3.25z" opacity=".2"/><path d="M12 20.75C4.196 20.75.685 14.637.002 11.991L0 12c.525 2.5 4 9 12 9s11.475-6.5 12-9l-.002-.009C23.315 14.637 19.804 20.75 12 20.75z" opacity=".1"/><circle cx="12" cy="12" r="6" fill="#039BE5"/><circle cx="12" cy="12" r="3" fill="#333"/><linearGradient id="a" x1="6.562" x2="17.438" y1="9.464" y2="14.536" gradientUnits="userSpaceOnUse"><stop offset="0" stop-color="#FFF" stop-opacity=".2"/><stop offset="1" stop-color="#FFF" stop-opacity="0"/></linearGradient><circle cx="12" cy="12" r="6" fill="url(#a)"/><linearGradient id="b" x1="1.976" x2="22.024" y1="7.326" y2="16.674" gradientUnits="userSpaceOnUse"><stop offset="0" stop-color="#FFF" stop-opacity=".2"/><stop offset="1" stop-color="#FFF" stop-opacity="0"/></linearGradient><path fill="url(#b)" d="M12 3C4 3 .525 9.5 0 12c.525 2.5 4 9 12 9s11.475-6.5 12-9c-.525-2.5-4-9-12-9z"/></svg>