<?xml version="1.0" encoding="UTF-8" standalone="no"?>
<svg
   viewBox="0 0 24 24"
   version="1.1"
   id="svg6"
   sodipodi:docname="rise.svg"
   inkscape:version="1.1 (c68e22c387, 2021-05-23)"
   xmlns:inkscape="http://www.inkscape.org/namespaces/inkscape"
   xmlns:sodipodi="http://sodipodi.sourceforge.net/DTD/sodipodi-0.dtd"
   xmlns="http://www.w3.org/2000/svg"
   xmlns:svg="http://www.w3.org/2000/svg">
  <defs
     id="defs10" />
  <sodipodi:namedview
     id="namedview8"
     pagecolor="#ffffff"
     bordercolor="#666666"
     borderopacity="1.0"
     inkscape:pageshadow="2"
     inkscape:pageopacity="0.0"
     inkscape:pagecheckerboard="0"
     showgrid="false"
     inkscape:zoom="22.627417"
     inkscape:cx="1.3037281"
     inkscape:cy="14.164233"
     inkscape:window-width="1920"
     inkscape:window-height="1009"
     inkscape:window-x="-8"
     inkscape:window-y="-8"
     inkscape:window-maximized="1"
     inkscape:current-layer="svg6" />
  <path
     fill="#6563ff"
     d="m 15.246162,15.073849 a 1,1 0 0 1 -1.248191,-1.362247 l 4.183707,-8.9719892 a 0.99989,0.99989 0 0 1 1.812342,0.8451089 l -4.183707,8.9719893 a 0.99676,0.99676 0 0 1 -0.564151,0.517138 z M 5.2515632,19.775763 A 1,1 0 0 1 4.0033721,18.413516 L 7.589407,10.72324 a 0.99989,0.99989 0 0 1 1.8123418,0.845109 l -3.5860349,7.690276 a 0.99676,0.99676 0 0 1 -0.5641507,0.517138 z"
     id="path2" />
  <path
     fill="#6563ff"
     d="m 15.246162,15.073849 a 0.99676,0.99676 0 0 1 -0.764575,-0.03352 L 8.0730234,12.051965 a 0.99989,0.99989 0 0 1 0.8451089,-1.812342 l 6.4085637,2.988363 a 1,1 0 0 1 -0.08053,1.845863 z"
     id="path4" />
  <path
     style="fill:#217821;stroke-width:0.0291262"
     d="M 5.0018236,19.813464 C 4.713325,19.836035 4.454382,19.744632 4.2257872,19.539537 4.1174664,19.442352 4.0916721,19.398478 4.0081351,19.169322 3.9287515,18.95156 3.9158903,18.883281 3.9289091,18.748724 c 0.012496,-0.12915 0.3789443,-0.941665 1.8696573,-4.145529 2.095809,-4.504346 1.9395348,-4.215618 2.3646301,-4.36882 0.4139757,-0.149195 0.2136256,-0.223403 3.4130955,1.264178 l 2.844828,1.32269 1.911245,-4.0951283 c 1.775219,-3.8036715 1.92174,-4.1056912 2.058695,-4.2435497 0.37455,-0.3770209 0.981856,-0.3844977 1.374258,-0.016918 0.121993,0.1142815 0.149965,0.1596151 0.224071,0.3632203 0.158348,0.4350553 0.330067,0.00744 -2.094661,5.2160895 -1.565976,3.363932 -2.18784,4.669484 -2.268248,4.762 -0.10073,0.115902 -0.135608,0.136492 -0.384478,0.227074 -0.232199,0.08451 -0.298058,0.09725 -0.43436,0.08399 -0.127873,-0.01243 -0.739458,-0.284798 -2.996622,-1.334513 L 8.9750623,12.464627 7.4089224,15.825304 C 6.547545,17.673676 5.79805,19.257199 5.7433773,19.344242 5.5701192,19.620086 5.3015662,19.790015 5.0018236,19.813464 Z"
     id="path308" />
  <path
     style="fill:#217821;stroke-width:0.00390625"
     d="m 15.152267,15.101402 c -0.07801,0.01956 -0.168298,0.03106 -0.245462,0.03119 -0.101951,1.69e-4 -0.230513,-0.02112 -0.328784,-0.05445 -0.04607,-0.01563 -2.744487,-1.272423 -2.739855,-1.276099 0.0018,-0.0014 0.294343,0.132457 0.650034,0.29757 1.472753,0.68366 2.070825,0.950049 2.257621,1.005576 0.08244,0.02451 0.179179,0.02522 0.277621,0.002 0.05541,-0.01304 0.31332,-0.10393 0.384735,-0.135563 0.09454,-0.04186 0.126641,-0.06378 0.186923,-0.127447 0.04251,-0.0449 0.05844,-0.07001 0.124019,-0.195513 0.148853,-0.284869 0.423523,-0.857229 1.025751,-2.13748 0.224288,-0.476801 0.283232,-0.598802 0.290607,-0.60148 0.0074,-0.0027 -0.112762,0.258122 -0.62246,1.35044 -0.347441,0.744588 -0.641673,1.370047 -0.653848,1.389907 -0.103512,0.168839 -0.249566,0.300677 -0.428255,0.386574 -0.04208,0.02021 -0.133964,0.05355 -0.178642,0.06475 z"
     id="path347" />
  <path
     style="fill:#217821;stroke-width:0.00390625"
     d="M 12.156597,11.765926 C 10.009118,10.767393 9.5767884,10.567938 9.2618206,10.430426 8.8433124,10.247708 8.6371838,10.175368 8.4899511,10.15954 c -0.047684,-0.0051 -0.040539,-0.0079 0.020038,-0.0078 0.093072,2.02e-4 0.2075674,0.01886 0.3047508,0.04965 0.038299,0.01214 0.6497132,0.295437 2.7002969,1.251189 1.752555,0.816845 2.648291,1.236382 2.64342,1.238101 -0.0048,0.0017 -0.690435,-0.315013 -2.00186,-0.924798 z"
     id="path386" />
  <path
     style="fill:#217821;stroke-width:0.00390625"
     d=""
     id="path425" />
  <path
     style="fill:#217821;stroke-width:0.00390625"
     d="m 6.5660055,14.484408 -0.3117018,-0.856394 0.436371,-0.933973 c 0.240004,-0.513685 0.4811755,-1.026925 0.5359362,-1.140534 0.4451841,-0.92359 0.585645,-1.158269 0.7456709,-1.245849 0.027846,-0.01524 0.296807,-0.112903 0.3561543,-0.129321 0.1956239,-0.05413 0.4031139,0.01402 1.350031,0.44339 0.1931554,0.08758 3.6626139,1.698928 4.2899769,1.992424 l 0.175323,0.08202 -1.308619,0.476161 -1.30862,0.476161 L 10.25063,13.055377 8.9747324,12.46226 8.3804629,13.736199 7.7861933,15.010139 7.3319502,15.17547 6.8777069,15.340801 Z"
     id="path464" />
  <path
     style="fill:#217821;stroke-width:0.00390625"
     d="m 10.590262,13.223973 c -0.6855823,-0.319874 -1.2442583,-0.58174 -1.2415029,-0.581926 0.00715,-4.74e-4 2.4920399,1.158414 2.4898389,1.161203 -0.001,0.0013 -0.562755,-0.259404 -1.248336,-0.579277 z"
     id="path503" />
  <path
     style="fill:#217821;stroke-width:0.00390625"
     d="M 5.070301,17.296187 4.8420282,16.669013 5.5735087,15.093799 C 5.9758232,14.227432 6.4846793,13.133774 6.7043006,12.66345 l 0.3993107,-0.855136 1.440046,-0.524134 1.4400458,-0.524134 0.9213159,0.428443 c 0.506724,0.235642 0.940509,0.437385 0.963966,0.448317 0.02346,0.01094 0.607507,0.282695 1.297887,0.603918 l 1.255237,0.584041 0.142202,-0.304914 0.142203,-0.304915 0.367067,1.008507 0.367066,1.008507 -0.74072,0.2696 -0.740721,0.2696 -0.323477,-0.14727 c -0.398521,-0.181435 -1.583312,-0.730259 -3.332406,-1.543649 l -1.3285349,-0.617817 -1.1584094,2.483084 -1.1584094,2.483085 -0.6796976,0.24739 -0.6796975,0.247389 z"
     id="path542" />
  <path
     style="fill:#217821;stroke-width:0.00390625"
     d=""
     id="path581" />
  <path
     style="fill:#217821;stroke-width:0.00390625"
     d="m 8.5441273,13.397799 c -0.00174,-0.0048 0.4296268,-0.929831 0.4329002,-0.928304 0.00138,6.67e-4 -0.095162,0.210599 -0.2145306,0.46657 -0.1193685,0.255973 -0.2176349,0.463752 -0.2183696,0.461734 z"
     id="path620" />
  <path
     style="fill:#217821;stroke-width:0.0110485"
     d="m 3.9320041,18.670791 c -0.013722,-0.03725 0.091088,-0.288621 0.360261,-0.864005 0.1658788,-0.354583 0.3030928,-0.640589 0.3049195,-0.63557 0.00181,0.005 -0.084379,0.200636 -0.1915698,0.434703 -0.1952597,0.426382 -0.3685931,0.820733 -0.4341655,0.987769 -0.019251,0.04904 -0.037002,0.08374 -0.039446,0.0771 z"
     id="path659" />
  <path
     style="fill:#217821;stroke-width:0.0110485"
     d="m 4.0473865,19.333233 c -0.036222,-0.06352 -0.1138385,-0.286191 -0.1191048,-0.34171 -0.00341,-0.03595 0.012317,-4.39e-4 0.075137,0.169592 0.043699,0.118278 0.077405,0.215797 0.074896,0.21671 -0.00251,9.14e-4 -0.016423,-0.01916 -0.030927,-0.04459 z"
     id="path698" />
  <path
     style="fill:#217821;stroke-width:0.00390625"
     d="m 4.0604502,19.350884 c -0.028189,-0.043 -0.079087,-0.171317 -0.1095058,-0.276071 -0.017995,-0.06198 -0.022637,-0.08322 -0.018514,-0.08472 0.00413,-0.0015 0.1037469,0.260687 0.1234817,0.325024 l 0.016637,0.05422 z"
     id="path737" />
  <path
     style="fill:#217821;stroke-width:0.00390625"
     d="M 5.1896695,19.777029 C 5.0351156,19.81999 4.8752807,19.825935 4.7189094,19.794552 4.5357828,19.757798 4.3598476,19.66284 4.2065585,19.518023 4.1161758,19.432637 4.08804,19.382721 4.011155,19.171371 3.9374626,18.968795 3.9207191,18.88996 3.928407,18.781775 c 0.00506,-0.07126 0.025062,-0.128954 0.1343521,-0.387636 0.1428818,-0.33819 0.3625967,-0.821651 0.9842074,-2.165646 L 5.3850661,15.497482 6.694206,15.021031 8.003346,14.54458 7.310852,16.028328 c -0.9237563,1.979252 -1.5146892,3.226338 -1.5740381,3.3218 -0.073978,0.118988 -0.2019914,0.248793 -0.3157819,0.320192 -0.067296,0.04222 -0.1703187,0.08974 -0.2313635,0.106706 z"
     id="path776" />
  <path
     style="fill:#217821;stroke-width:0.00390625"
     d="m 3.9507392,19.017938 c -0.015586,-0.03715 -0.021955,-0.04588 -0.024603,-0.03374 -0.00232,0.01064 -0.00389,0.0022 -0.00883,-0.04736 -0.00531,-0.05329 -0.00621,-0.11942 -0.00239,-0.175235 0.00302,-0.0441 0.011004,-0.09793 0.013532,-0.09118 0.00277,0.0074 0.00823,0.0031 0.01764,-0.01408 0.00484,-0.0089 0.00919,-0.01512 0.00962,-0.01393 4.446e-4,0.0012 -0.00508,0.0198 -0.012273,0.04127 -0.030004,0.08955 -0.027093,0.204276 0.00818,0.322323 l 0.014557,0.04871 z"
     id="path815" />
  <path
     style="fill:#217821;stroke-width:0.00390625"
     d=""
     id="path854" />
  <path
     style="fill:#217821;stroke-width:0.00390625"
     d=""
     id="path893" />
  <path
     style="fill:#217821;stroke-width:0.00390625"
     d="m 5.1613786,19.80209 c -0.3796662,0.09537 -0.7724277,-0.03197 -1.0204771,-0.330838 -0.040685,-0.04902 -0.067927,-0.08878 -0.063331,-0.09243 0.00253,-0.002 -0.00116,-0.01702 -0.011294,-0.046 l -0.015038,-0.04302 0.018145,0.0412 c 0.037565,0.08529 0.063834,0.122476 0.1329125,0.188164 0.1425074,0.135513 0.3080882,0.229562 0.4765762,0.270692 0.1494408,0.03648 0.3083102,0.03789 0.4608249,0.0041 0.049849,-0.01101 0.1631078,-0.0532 0.2106757,-0.07828 0.1142152,-0.06043 0.2213013,-0.146952 0.3030398,-0.24486 0.060068,-0.07195 0.091516,-0.121796 0.1466434,-0.232424 0.1232973,-0.247435 0.521852,-1.086585 0.9348366,-1.968279 0.1535011,-0.327715 0.2801008,-0.595375 0.2813328,-0.594801 0.00476,0.0022 -1.2276727,2.636006 -1.252068,2.67574 -0.096651,0.157421 -0.2248418,0.27896 -0.3869161,0.36684 -0.043288,0.02352 -0.1685911,0.07239 -0.2158713,0.08421 z"
     id="path932" />
  <path
     style="fill:#217821;stroke-width:0.00390625"
     d=""
     id="path971" />
  <path
     style="fill:#217821;stroke-width:0.00390625"
     d=""
     id="path1010" />
  <path
     style="fill:#217821;stroke-width:0.00390625"
     d="m 5.7188064,14.737919 c 0.9899982,-2.123062 1.2427203,-2.66173 1.250029,-2.66439 0.00754,-0.0027 1.335e-4,0.01531 -0.041861,0.101988 -0.053101,0.109612 -1.4876189,3.194231 -2.0225617,4.349086 -0.1785673,0.385498 -0.3071412,0.658252 -0.3075152,0.652357 -7.57e-4,-0.01196 -0.030844,0.0449 -0.080144,0.151483 -0.017257,0.0373 -0.033047,0.06844 -0.035093,0.06919 -0.00205,7.46e-4 0.5546704,-1.19612 1.2371478,-2.659701 z"
     id="path1127" />
  <path
     style="fill:#217821;stroke-width:0.00390625"
     d=""
     id="path1166" />
  <path
     style="fill:#217821;stroke-width:0.00390625"
     d="m 6.9681058,12.07437 c -0.00574,-3.9e-5 0.062694,-0.150064 0.3179791,-0.696762 0.2168801,-0.464452 0.3341607,-0.710974 0.3518642,-0.739614 0.054768,-0.0886 0.1190753,-0.165742 0.191991,-0.230308 0.0516,-0.04569 0.061038,-0.04976 0.026946,-0.01163 -0.143523,0.160559 -0.3444095,0.537668 -0.7853285,1.474241 -0.074444,0.15813 -0.097774,0.204151 -0.1034519,0.204068 z"
     id="path1205" />
  <path
     style="fill:#217821;stroke-width:0.00390625"
     d="m 8.3119994,10.178862 c -0.021855,0.0059 -0.055078,0.0174 -0.073822,0.02554 -0.018745,0.0081 -0.081615,0.03071 -0.1397077,0.05016 l -0.1056251,0.03536 0.027423,-0.01603 c 0.019718,-0.01153 0.057812,-0.02717 0.1356119,-0.0557 0.096604,-0.03543 0.113601,-0.04064 0.1587218,-0.04868 0.07323,-0.01305 0.072658,-0.01099 -0.0026,0.0094 z"
     id="path1322" />
  <path
     style="fill:#217821;stroke-width:0.00390625"
     d=""
     id="path1400" />
  <path
     style="fill:#217821;stroke-width:0.00390625"
     d=""
     id="path1439" />
  <path
     style="fill:#217821;stroke-width:0.00390625"
     d="m 17.033946,11.912734 c -0.0047,-0.0026 0.128831,-0.292154 0.627914,-1.362108 0.619958,-1.329091 1.54644,-3.3231851 1.750798,-3.7682906 0.09969,-0.2171381 0.103054,-0.223729 0.115869,-0.2271476 0.01297,-0.00346 -0.0084,0.04277 -1.237716,2.6786174 -0.9852,2.1124058 -1.25218,2.6814558 -1.256865,2.6789288 z"
     id="path1478" />
  <path
     style="fill:#217821;stroke-width:0.00390625"
     d="m 16.896208,7.5009361 c 0.92022,-1.973361 1.315294,-2.8164106 1.333995,-2.8466141 0.105474,-0.1703411 0.243654,-0.295865 0.422158,-0.3834914 0.05051,-0.02479 0.178507,-0.067908 0.234097,-0.078851 0.173418,-0.034135 0.355368,-0.021805 0.522103,0.03538 0.05707,0.01957 0.155526,0.066402 0.204471,0.097249 0.190924,0.1203323 0.330424,0.2930671 0.407336,0.5043821 0.07907,0.2172502 0.08164,0.4421589 0.0076,0.6639584 -0.01875,0.056145 -0.495966,1.0839606 -0.496892,1.0701813 -4.07e-4,-0.00667 -0.0024,-0.0085 -0.008,-0.00747 -0.0056,0.00102 0.01273,-0.04341 0.07444,-0.1804403 C 19.957809,5.575047 20.073958,5.2608882 20.071508,5.0930453 20.070689,5.03691 20.06692,5.0234844 20.011236,4.8780367 19.948122,4.713112 19.921511,4.6525725 19.891334,4.6053898 19.83492,4.5170559 19.703597,4.3980967 19.587169,4.3298607 19.404234,4.2226459 19.182643,4.1755016 18.974386,4.1994879 c -0.09052,0.010427 -0.128633,0.019846 -0.228832,0.056556 -0.07742,0.028364 -0.09861,0.03755 -0.136096,0.058974 -0.08134,0.0465 -0.144558,0.093579 -0.208037,0.1549315 -0.143234,0.1384366 -0.255525,0.368371 -1.901374,3.8933899 -0.497056,1.0645758 -0.905436,1.9368749 -0.907513,1.9384449 -0.0021,0.0016 0.584567,-1.2588143 1.303651,-2.8008498 z"
     id="path1517" />
</svg>
