<svg xmlns="http://www.w3.org/2000/svg" viewBox="0 0 32 32"><path fill="#ffcc5c" d="M10.5 5.804v18a2 2 0 0 0 2 2h11a2 2 0 0 0 2-2v-18h-15zm4 5c-.551 0-1-.449-1-1s.449-1 1-1 1 .449 1 1-.449 1-1 1zm7 0c-.551 0-1-.449-1-1s.449-1 1-1 1 .449 1 1-.449 1-1 1z"/><path fill="#f7b546" d="M13.5 17.804v-12h-3v18a2 2 0 0 0 2 2h11a2 2 0 0 0 2-2h-6a6 6 0 0 1-6-6z"/><path fill="#f7b546" d="M10.5 23.804v-18h-5v18a2 2 0 0 0 2 2h5a2 2 0 0 1-2-2z"/><path fill="#3c3b42" d="M14.5 11.304c-.827 0-1.5-.673-1.5-1.5s.673-1.5 1.5-1.5 1.5.673 1.5 1.5-.673 1.5-1.5 1.5zm0-2c-.275 0-.5.225-.5.5s.225.5.5.5.5-.225.5-.5-.225-.5-.5-.5zM21.5 11.304c-.827 0-1.5-.673-1.5-1.5s.673-1.5 1.5-1.5 1.5.673 1.5 1.5-.673 1.5-1.5 1.5zm0-2c-.275 0-.5.225-.5.5s.225.5.5.5.5-.225.5-.5-.225-.5-.5-.5z"/><path fill="#3c3b42" d="M18 18.304c-2.206 0-4-1.794-4-3.999v-3.501a.5.5 0 0 1 1 0v3.501c0 1.653 1.346 2.999 3 2.999s3-1.346 3-2.999v-3.501a.5.5 0 0 1 1 0v3.501a4.004 4.004 0 0 1-4 3.999z"/><path fill="#f4a738" d="M10.5 23.804v-18H8v18a2 2 0 0 0 2 2h2.5a2 2 0 0 1-2-2z"/></svg>