<svg xmlns="http://www.w3.org/2000/svg" viewBox="0 0 32 32"><circle cx="16" cy="16" r="15" fill="#eef5fd"/><path fill="#d7e2f2" d="M2.38,17.5A15,15,0,0,1,27.72,6.67,15,15,0,1,0,5.65,26.83,14.92,14.92,0,0,1,2.38,17.5Z"/><path fill="#96d7ff" d="M16,31a15,15,0,0,0,11-4.83v-.39h0a11,11,0,0,0-21.91-1h0l-.06,1v.39A15,15,0,0,0,16,31Z"/><path fill="#86c3ef" d="M6.13,27v-.4l.07-.95h0a11.06,11.06,0,0,1,10.93-9.83,10.79,10.79,0,0,1,5.77,1.68A10.91,10.91,0,0,0,16,15,11.05,11.05,0,0,0,5.08,24.83h0l-.06,1v.39a15.3,15.3,0,0,0,3,2.47A16.22,16.22,0,0,1,6.13,27Z"/><circle cx="16" cy="12" r="7" fill="#ff9797"/><path fill="#e47979" d="M10,12.75A7,7,0,0,1,20.67,6.8,7,7,0,1,0,12.33,18,7,7,0,0,1,10,12.75Z"/></svg>